<svg width="48" height="48" viewBox="0 0 48 48" xmlns="http://www.w3.org/2000/svg">
  <defs>
    <linearGradient id="goldGradient" x1="0%" y1="0%" x2="100%" y2="100%">
      <stop offset="0%" style="stop-color:#F7D046;stop-opacity:1"/>
      <stop offset="100%" style="stop-color:#E4A928;stop-opacity:1"/>
    </linearGradient>
  </defs>
  <g>
    <!-- Shield Background -->
    <path d="M24,6.5 C20,6.5 16,8 12.5,10.5 L6.5,16.5 C3,20 2,25 2,30 C2,35 4,38.5 8,41 L14,44.5 C18,47 24,47 24,47 C24,47 30,47 34,44.5 L40,41 C44,38.5 46,35 46,30 C46,25 45,20 41.5,16.5 L35.5,10.5 C32,8 28,6.5 24,6.5 Z" fill="#1E3A8A"/>
    
    <!-- Shield Border -->
    <path d="M24,6.5 C20,6.5 16,8 12.5,10.5 L6.5,16.5 C3,20 2,25 2,30 C2,35 4,38.5 8,41 L14,44.5 C18,47 24,47 24,47 C24,47 30,47 34,44.5 L40,41 C44,38.5 46,35 46,30 C46,25 45,20 41.5,16.5 L35.5,10.5 C32,8 28,6.5 24,6.5 Z" fill="none" stroke="#F7D046" stroke-width="1.5"/>
    
    <!-- Star -->
    <polygon points="24,13 25.5,18.5 32,18.5 27,22 28.5,27.5 24,24.5 19.5,27.5 21,22 16,18.5 22.5,18.5" fill="white"/>
    
    <!-- Building -->
    <path d="M31,28.5 L31,40 L34.5,40 L34.5,32.5 L38,32.5 L38,40 L41.5,40 L41.5,28.5 Z" fill="url(#goldGradient)"/>
    <path d="M31,28.5 L31,40 L34.5,40 L34.5,32.5 L38,32.5 L38,40 L41.5,40 L41.5,28.5 Z" fill="none" stroke="#E4A928" stroke-width="0.5"/>
    
    <!-- Left Building -->
    <path d="M16.5,28.5 L16.5,40 L20,40 L20,36 L23.5,36 L23.5,40 L27,40 L27,28.5 Z" fill="url(#goldGradient)"/>
    <path d="M16.5,28.5 L16.5,40 L20,40 L20,36 L23.5,36 L23.5,40 L27,40 L27,28.5 Z" fill="none" stroke="#E4A928" stroke-width="0.5"/>
    
    <!-- Middle Building -->
    <path d="M27,20.5 L27,40 L31,40 L31,20.5 Z" fill="url(#goldGradient)"/>
    <path d="M27,20.5 L27,40 L31,40 L31,20.5 Z" fill="none" stroke="#E4A928" stroke-width="0.5"/>
  </g>
</svg>